<svg width="32" height="38" viewBox="0 0 32 38" fill="none" xmlns="http://www.w3.org/2000/svg">
<path d="M31.1429 35.2941H29.7143V1.76471C29.7143 0.790074 28.9468 0 28 0H4C3.05321 0 2.28571 0.790074 2.28571 1.76471V35.2941H0.857143C0.383786 35.2941 0 35.6892 0 36.1765V37.6471H32V36.1765C32 35.6892 31.6162 35.2941 31.1429 35.2941ZM9.14286 5.58824C9.14286 5.10096 9.52664 4.70588 10 4.70588H12.8571C13.3305 4.70588 13.7143 5.10096 13.7143 5.58824V8.52941C13.7143 9.01669 13.3305 9.41177 12.8571 9.41177H10C9.52664 9.41177 9.14286 9.01669 9.14286 8.52941V5.58824ZM9.14286 12.6471C9.14286 12.1598 9.52664 11.7647 10 11.7647H12.8571C13.3305 11.7647 13.7143 12.1598 13.7143 12.6471V15.5882C13.7143 16.0755 13.3305 16.4706 12.8571 16.4706H10C9.52664 16.4706 9.14286 16.0755 9.14286 15.5882V12.6471ZM12.8571 23.5294H10C9.52664 23.5294 9.14286 23.1343 9.14286 22.6471V19.7059C9.14286 19.2186 9.52664 18.8235 10 18.8235H12.8571C13.3305 18.8235 13.7143 19.2186 13.7143 19.7059V22.6471C13.7143 23.1343 13.3305 23.5294 12.8571 23.5294ZM18.2857 35.2941H13.7143V29.1176C13.7143 28.6304 14.0981 28.2353 14.5714 28.2353H17.4286C17.9019 28.2353 18.2857 28.6304 18.2857 29.1176V35.2941ZM22.8571 22.6471C22.8571 23.1343 22.4734 23.5294 22 23.5294H19.1429C18.6695 23.5294 18.2857 23.1343 18.2857 22.6471V19.7059C18.2857 19.2186 18.6695 18.8235 19.1429 18.8235H22C22.4734 18.8235 22.8571 19.2186 22.8571 19.7059V22.6471ZM22.8571 15.5882C22.8571 16.0755 22.4734 16.4706 22 16.4706H19.1429C18.6695 16.4706 18.2857 16.0755 18.2857 15.5882V12.6471C18.2857 12.1598 18.6695 11.7647 19.1429 11.7647H22C22.4734 11.7647 22.8571 12.1598 22.8571 12.6471V15.5882ZM22.8571 8.52941C22.8571 9.01669 22.4734 9.41177 22 9.41177H19.1429C18.6695 9.41177 18.2857 9.01669 18.2857 8.52941V5.58824C18.2857 5.10096 18.6695 4.70588 19.1429 4.70588H22C22.4734 4.70588 22.8571 5.10096 22.8571 5.58824V8.52941Z" fill="white"/>
</svg>