<svg width="177" height="144" viewBox="0 0 177 144" fill="none" xmlns="http://www.w3.org/2000/svg">
<path d="M56.7788 122.391C56.7788 122.391 49.9914 113.31 36.3312 118.51C36.3312 118.51 3.48375 125.561 0.129421 92.7662C0.129421 92.7662 -3.55968 62.7959 28.4541 62.4437C28.4541 62.4437 51.9738 67.6713 58.4527 56.4497C58.4527 56.4497 66.3626 49.0469 60.9996 29.3037C60.9339 29.069 60.8683 28.8273 60.8027 28.5925C60.8027 28.5925 58.4592 0.030899 89.9676 0.383087C89.9676 0.383087 119.802 1.79184 114.104 32.8256C114.104 32.8256 108.741 49.0469 116.789 56.8019C116.789 56.8019 119.809 66.3247 143.269 62.7959C143.269 62.7959 173.773 57.154 176.117 88.8922C176.117 88.8922 179.97 115.865 146.788 118.69C146.788 118.69 142.803 118.048 135.891 117.454C130.344 116.977 123.32 116.922 118.798 122.391C118.798 122.391 109.575 131.113 113.264 143.288C113.625 144.475 114.288 146.526 114.774 148.135C114.774 148.135 120.393 179.169 88.0902 180.93C88.0902 180.93 62.1483 181.987 60.1397 155.186C60.1397 155.186 59.4701 150.248 61.4788 146.015C61.4722 146.015 68.6797 132.439 56.7788 122.391Z" fill="#EDF1F5"/>
</svg>
